<svg width="256" height="256" viewBox="0 0 256 256" xmlns="http://www.w3.org/2000/svg">
  <!-- Background -->
  <rect width="256" height="256" fill="#2c3e50"/>
  
  <!-- Manuscript pages -->
  <rect x="48" y="32" width="140" height="180" fill="#f8f8f8" stroke="#ddd" stroke-width="2" rx="4"/>
  <rect x="60" y="44" width="116" height="156" fill="#ffffff" stroke="#e0e0e0" stroke-width="1" rx="2"/>
  
  <!-- Ancient text lines -->
  <rect x="72" y="60" width="92" height="3" fill="#8b4513" opacity="0.8"/>
  <rect x="72" y="72" width="86" height="3" fill="#8b4513" opacity="0.8"/>
  <rect x="72" y="84" width="94" height="3" fill="#8b4513" opacity="0.8"/>
  <rect x="72" y="96" width="88" height="3" fill="#8b4513" opacity="0.8"/>
  
  <!-- Decorative initial letter -->
  <circle cx="84" cy="124" r="12" fill="#d4af37" opacity="0.9"/>
  <text x="84" y="132" font-family="serif" font-size="16" font-weight="bold" text-anchor="middle" fill="#2c3e50">M</text>
  
  <!-- More text lines -->
  <rect x="104" y="118" width="60" height="3" fill="#8b4513" opacity="0.6"/>
  <rect x="104" y="130" width="68" height="3" fill="#8b4513" opacity="0.6"/>
  <rect x="72" y="142" width="92" height="3" fill="#8b4513" opacity="0.6"/>
  <rect x="72" y="154" width="84" height="3" fill="#8b4513" opacity="0.6"/>
  <rect x="72" y="166" width="90" height="3" fill="#8b4513" opacity="0.6"/>
  <rect x="72" y="178" width="88" height="3" fill="#8b4513" opacity="0.6"/>
  
  <!-- Download arrow overlay -->
  <g transform="translate(180, 180)">
    <circle cx="0" cy="0" r="24" fill="#3498db" opacity="0.9"/>
    <path d="M-8,-4 L0,8 L8,-4 M0,-8 L0,8" stroke="#ffffff" stroke-width="3" fill="none" stroke-linecap="round" stroke-linejoin="round"/>
  </g>
  
  <!-- Subtle border -->
  <rect x="1" y="1" width="254" height="254" fill="none" stroke="#34495e" stroke-width="2" rx="8"/>
</svg>